<?xml version="1.0" encoding="utf-8"?>
<svg viewBox="0 0 24 24" xmlns="http://www.w3.org/2000/svg">
  <path d="M 12 0.351 C 5.405 0.351 0.056 5.698 0.056 12.294 C 0.056 17.572 3.478 22.049 8.225 23.628 C 8.821 23.739 9.014 23.368 9.014 23.054 L 9.014 20.83 C 5.691 21.553 5 19.421 5 19.421 C 4.456 18.04 3.673 17.673 3.673 17.673 C 2.589 16.932 3.756 16.948 3.756 16.948 C 4.955 17.031 5.586 18.179 5.586 18.179 C 6.651 20.004 8.38 19.477 9.062 19.171 C 9.168 18.4 9.478 17.872 9.82 17.575 C 7.168 17.271 4.379 16.247 4.379 11.671 C 4.379 10.367 4.845 9.302 5.609 8.465 C 5.485 8.164 5.076 6.949 5.725 5.304 C 5.725 5.304 6.729 4.984 9.011 6.529 C 9.963 6.264 10.985 6.131 12 6.126 C 13.015 6.131 14.037 6.264 14.992 6.529 C 17.272 4.984 18.273 5.304 18.273 5.304 C 18.923 6.95 18.514 8.165 18.391 8.465 C 19.157 9.302 19.62 10.368 19.62 11.671 C 19.62 16.259 16.826 17.269 14.167 17.565 C 14.595 17.935 14.986 18.661 14.986 19.776 L 14.986 23.054 C 14.986 23.371 15.177 23.745 15.783 23.627 C 20.526 22.046 23.944 17.57 23.944 12.294 C 23.944 5.698 18.596 0.351 12 0.351 Z" style=""/>
</svg>