<?xml version="1.0" encoding="utf-8"?>
<svg viewBox="0 0 24 24" xmlns="http://www.w3.org/2000/svg">
  <path d="M 11.999 2.14 C 17.436 2.14 21.859 6.563 21.859 12 C 21.859 17.436 17.436 21.859 11.999 21.859 C 6.563 21.859 2.14 17.436 2.14 12 C 2.14 6.563 6.563 2.14 11.999 2.14 Z M 11.999 0.168 C 5.466 0.168 0.168 5.466 0.168 12 C 0.168 18.533 5.466 23.831 11.999 23.831 C 18.533 23.831 23.831 18.533 23.831 12 C 23.831 5.466 18.533 0.168 11.999 0.168 Z M 13.232 16.929 C 13.232 17.61 12.681 18.162 11.999 18.162 C 11.32 18.162 10.767 17.61 10.767 16.929 C 10.767 16.249 11.32 15.697 11.999 15.697 C 12.681 15.697 13.232 16.249 13.232 16.929 Z M 14.605 7.072 C 14.006 6.465 13.112 6.13 12.09 6.13 C 9.941 6.13 8.551 7.658 8.551 10.025 L 10.533 10.025 C 10.533 8.56 11.351 8.04 12.05 8.04 C 12.675 8.04 13.338 8.455 13.394 9.249 C 13.456 10.084 13.01 10.508 12.446 11.044 C 11.054 12.368 11.028 13.009 11.034 14.464 L 13.011 14.464 C 12.998 13.809 13.041 13.277 13.933 12.316 C 14.6 11.596 15.43 10.701 15.447 9.337 C 15.458 8.426 15.167 7.642 14.605 7.072 Z" style=""/>
</svg>