<?xml version="1.0" encoding="utf-8"?>
<svg viewBox="0 0 24 24" clip-rule="evenodd" fill-rule="evenodd" stroke-linejoin="round" stroke-miterlimit="2" xmlns="http://www.w3.org/2000/svg">
  <path d="M 10.649 15.963 L 10.649 20.257 C 10.649 20.801 10.207 21.248 9.656 21.248 C 9.408 21.248 9.161 21.154 8.972 20.976 C 6.627 18.75 2.438 14.776 0.521 12.958 C 0.257 12.707 0.109 12.361 0.109 12 C 0.109 11.638 0.257 11.291 0.521 11.042 C 2.438 9.223 6.627 5.249 8.972 3.024 C 9.161 2.845 9.408 2.752 9.656 2.752 C 10.207 2.752 10.649 3.197 10.649 3.743 L 10.649 8.037 L 22.567 8.037 C 23.269 8.037 23.89 8.658 23.89 9.358 L 23.89 14.641 C 23.89 15.34 23.269 15.963 22.567 15.963 L 10.649 15.963 Z" fill-rule="nonzero" style=""/>
</svg>