<?xml version="1.0" encoding="utf-8"?>
<svg viewBox="0 0 24 24" fill="#000000" xmlns="http://www.w3.org/2000/svg">
  <path d="M 13.673 0.16 C 9.67 -0.388 5.658 1.107 2.99 4.141 C 0.715 6.761 -0.316 10.236 0.161 13.672 C 0.794 18.327 4.294 22.287 8.869 23.528 C 9.888 23.808 10.941 23.95 11.998 23.952 L 12.168 23.951 C 13.396 23.935 14.531 23.292 15.175 22.246 C 15.822 21.206 15.891 19.908 15.358 18.805 L 15.12 18.308 C 14.748 17.58 14.791 16.71 15.233 16.022 C 15.876 14.977 17.206 14.587 18.312 15.119 L 18.804 15.355 C 19.297 15.592 19.821 15.713 20.359 15.713 C 22.322 15.703 23.917 14.128 23.953 12.166 C 23.968 11.052 23.825 9.941 23.53 8.867 C 22.288 4.293 18.328 0.793 13.673 0.16 Z M 19.839 13.2 L 19.346 12.964 C 17.161 11.915 14.481 12.728 13.208 14.75 C 12.326 16.156 12.236 17.829 12.964 19.342 L 13.202 19.84 C 13.383 20.207 13.36 20.643 13.141 20.988 C 12.927 21.342 12.545 21.559 12.132 21.562 L 11.998 21.562 C 11.152 21.559 10.31 21.445 9.494 21.223 C 5.832 20.229 3.035 17.064 2.53 13.35 C 2.147 10.536 2.951 7.824 4.792 5.713 C 6.922 3.27 10.143 2.073 13.351 2.529 C 17.065 3.035 20.23 5.833 21.224 9.493 C 21.461 10.366 21.574 11.255 21.561 12.131 C 21.547 13.096 20.551 13.545 19.839 13.2 Z" style=""/>
  <circle cx="6.62" cy="14.987" r="1.793" style=""/>
  <circle cx="6.62" cy="10.205" r="1.793" style=""/>
  <circle cx="10.206" cy="6.619" r="1.793" style=""/>
  <circle cx="14.987" cy="6.619" r="1.793" style=""/>
</svg>