<?xml version="1.0" encoding="utf-8"?>
<svg viewBox="0 0 24 24" xmlns="http://www.w3.org/2000/svg">
  <path d="M 23.916 14.172 L 23.916 9.829 C 21.783 9.068 21.21 9.032 20.911 8.31 C 20.61 7.587 20.993 7.15 21.962 5.11 L 18.891 2.039 C 16.879 2.995 16.42 3.393 15.69 3.09 C 14.968 2.79 14.927 2.208 14.173 0.085 L 9.829 0.085 C 9.07 2.214 9.035 2.79 8.311 3.09 C 7.564 3.401 7.116 2.991 5.11 2.039 L 2.039 5.11 C 3.009 7.151 3.392 7.586 3.091 8.311 C 2.791 9.033 2.216 9.07 0.085 9.829 L 0.085 14.173 C 2.209 14.928 2.791 14.967 3.091 15.69 C 3.393 16.419 3.01 16.849 2.039 18.891 L 5.11 21.962 C 7.095 21.018 7.563 20.598 8.311 20.91 C 9.034 21.21 9.069 21.784 9.829 23.916 L 14.172 23.916 C 14.925 21.8 14.966 21.212 15.699 20.906 C 16.438 20.6 16.876 21.005 18.891 21.961 L 21.962 18.89 C 20.994 16.854 20.61 16.415 20.911 15.689 C 21.209 14.968 21.784 14.932 23.916 14.172 Z M 19.076 14.931 C 18.503 16.315 19.008 17.371 19.56 18.483 L 18.484 19.56 C 17.398 19.021 16.338 18.491 14.936 19.073 C 13.55 19.65 13.158 20.754 12.763 21.93 L 11.24 21.93 C 10.845 20.753 10.455 19.649 9.072 19.075 C 7.663 18.491 6.583 19.031 5.519 19.56 L 4.443 18.483 C 4.996 17.373 5.502 16.319 4.927 14.929 C 4.352 13.547 3.248 13.157 2.071 12.762 L 2.071 11.24 C 3.248 10.844 4.352 10.454 4.926 9.071 C 5.5 7.687 4.993 6.629 4.441 5.517 L 5.518 4.441 C 6.592 4.975 7.664 5.51 9.072 4.925 C 10.455 4.352 10.845 3.247 11.24 2.071 L 12.763 2.071 C 13.158 3.247 13.55 4.351 14.932 4.925 C 16.341 5.509 17.42 4.97 18.486 4.441 L 19.562 5.517 C 19.01 6.63 18.505 7.689 19.078 9.072 C 19.651 10.453 20.755 10.843 21.932 11.24 L 21.932 12.763 C 20.753 13.158 19.647 13.548 19.076 14.931 Z M 12.001 9.021 C 13.643 9.021 14.98 10.358 14.98 12 C 14.98 13.643 13.643 14.979 12.001 14.979 C 10.358 14.979 9.022 13.643 9.022 12 C 9.022 10.358 10.358 9.021 12.001 9.021 Z M 12.001 7.035 C 9.258 7.035 7.036 9.258 7.036 12 C 7.036 14.743 9.258 16.965 12.001 16.965 C 14.743 16.965 16.966 14.743 16.966 12 C 16.966 9.258 14.743 7.035 12.001 7.035 Z" style=""/>
</svg>