<?xml version="1.0" encoding="utf-8"?>
<svg viewBox="0 0 24 24" fill="none" xmlns="http://www.w3.org/2000/svg">
  <path opacity="0.4" d="M 23.939 17.373 L 23.939 20.954 C 23.939 22.745 22.745 23.939 20.953 23.939 L 4.836 23.939 C 5.325 23.939 5.826 23.867 6.292 23.713 C 6.424 23.665 6.555 23.617 6.686 23.557 C 7.104 23.39 7.51 23.151 7.868 22.841 C 7.976 22.757 8.096 22.65 8.203 22.542 L 8.251 22.494 L 16.369 14.388 L 20.953 14.388 C 22.745 14.388 23.939 15.582 23.939 17.373 Z" style="fill: rgb(0, 0, 0);"/>
  <path opacity="0.6" d="M 19.604 11.152 L 16.367 14.388 L 8.249 22.494 C 9.085 21.635 9.61 20.452 9.61 19.163 L 9.61 7.63 L 12.847 4.395 C 14.111 3.128 15.807 3.128 17.072 4.395 L 19.604 6.926 C 20.87 8.192 20.87 9.887 19.604 11.152 Z" style="fill: rgb(0, 0, 0);"/>
  <path d="M 6.626 0.06 L 3.045 0.06 C 1.254 0.06 0.06 1.254 0.06 3.046 L 0.06 19.163 C 0.06 19.486 0.096 19.808 0.156 20.118 C 0.191 20.274 0.227 20.429 0.275 20.584 C 0.334 20.763 0.394 20.943 0.467 21.109 C 0.479 21.121 0.479 21.134 0.479 21.134 C 0.489 21.134 0.489 21.134 0.479 21.145 C 0.645 21.48 0.835 21.802 1.063 22.1 C 1.194 22.256 1.326 22.398 1.457 22.542 C 1.588 22.685 1.731 22.805 1.887 22.924 L 1.899 22.936 C 2.197 23.164 2.519 23.354 2.854 23.52 C 2.865 23.51 2.865 23.51 2.865 23.52 C 3.045 23.605 3.224 23.665 3.415 23.724 C 3.57 23.772 3.725 23.808 3.881 23.843 C 4.191 23.903 4.513 23.939 4.836 23.939 C 5.325 23.939 5.826 23.867 6.292 23.713 C 6.424 23.665 6.555 23.617 6.686 23.557 C 7.104 23.39 7.51 23.151 7.868 22.841 C 7.976 22.757 8.096 22.65 8.203 22.542 L 8.251 22.494 C 9.086 21.635 9.611 20.452 9.611 19.163 L 9.611 3.046 C 9.611 1.254 8.417 0.06 6.626 0.06 Z M 4.836 20.954 C 3.846 20.954 3.045 20.153 3.045 19.163 C 3.045 18.173 3.846 17.373 4.836 17.373 C 5.826 17.373 6.626 18.173 6.626 19.163 C 6.626 20.153 5.826 20.954 4.836 20.954 Z" style="fill: rgb(0, 0, 0);"/>
</svg>