<?xml version="1.0" encoding="utf-8"?>
<svg viewBox="0 0 24 24" clip-rule="evenodd" fill-rule="evenodd" stroke-linejoin="round" stroke-miterlimit="2" xmlns="http://www.w3.org/2000/svg">
  <path d="M 4.875 19.126 L 1.313 19.126 C 0.742 19.126 0.125 18.675 0.125 17.939 L 0.125 1.313 C 0.125 0.74 0.576 0.125 1.313 0.125 L 17.939 0.125 C 18.677 0.125 19.126 0.744 19.126 1.313 L 19.126 4.875 L 22.688 4.875 C 23.426 4.875 23.876 5.495 23.876 6.062 L 23.876 22.688 C 23.876 23.426 23.257 23.876 22.688 23.876 L 6.062 23.876 C 5.493 23.876 4.875 23.426 4.875 22.688 L 4.875 19.126 Z M 6.657 6.656 L 6.657 22.095 L 22.095 22.095 L 22.095 6.656 L 6.657 6.656 Z M 17.345 4.875 L 17.345 1.906 L 1.906 1.906 L 1.906 17.344 L 4.875 17.344 L 4.875 6.062 C 4.875 5.491 5.327 4.875 6.062 4.875 L 17.345 4.875 Z" fill-rule="nonzero" style="" transform="matrix(1, 0, 0, 1, -2.220446049250313e-16, 0)"/>
</svg>