<?xml version="1.0" encoding="utf-8"?>
<svg viewBox="0 0 24 24" width="24px" height="24px" xmlns="http://www.w3.org/2000/svg">
  <path d="M 14.556 0.131 C 16.748 1.3 20.466 4.991 21.953 6.98 C 20.673 6.084 17.928 5.331 15.891 5.806 C 16.112 4.345 15.707 1.294 14.556 0.131 Z M 21.953 11.005 L 21.953 23.944 L 2.047 23.944 L 2.047 0.056 L 10.417 0.056 C 15.251 0.056 13.736 8.019 13.736 8.019 C 16.731 7.277 21.953 7.602 21.953 11.005 Z M 7.024 12.498 C 7.024 13.322 7.692 13.991 8.518 13.991 C 9.341 13.991 10.01 13.322 10.01 12.498 C 10.01 11.674 9.341 11.005 8.518 11.005 C 7.692 11.005 7.024 11.674 7.024 12.498 Z M 16.977 18.967 L 13.493 12.996 L 11.41 15.95 L 10.106 14.986 L 7.024 18.967 L 16.977 18.967 Z" style=""/>
</svg>