<?xml version="1.0" encoding="utf-8"?>
<svg viewBox="0 0 24 24" xmlns="http://www.w3.org/2000/svg">
  <path d="M 17.499 13.138 L 10.102 6.523 L 11.425 5.044 C 12.241 5.774 13.496 5.705 14.225 4.886 L 17.701 1.085 C 18.29 0.426 19.105 0.092 19.923 0.092 C 21.575 0.092 22.916 1.44 22.916 3.065 C 22.916 3.783 22.646 4.489 22.142 5.055 L 18.665 8.856 C 17.936 9.673 18.004 10.926 18.822 11.659 L 17.499 13.138 Z M 13.219 11.972 L 5.487 20.556 C 5.175 20.905 4.175 20.877 3.648 21.108 C 3.819 20.559 3.696 19.582 4.007 19.233 L 11.739 10.648 L 10.259 9.326 L 2.42 18.052 C 1.153 19.464 2.25 20.296 1.279 22.073 C 1.146 22.315 1.084 22.549 1.084 22.766 C 1.084 23.422 1.62 23.908 2.216 23.908 C 2.455 23.908 2.705 23.829 2.934 23.654 C 4.655 22.332 5.558 23.471 6.858 22.02 L 14.698 13.295 L 13.219 11.972 Z" style=""/>
</svg>