<?xml version="1.0" encoding="utf-8"?>
<svg viewBox="0 0 24 24" clip-rule="evenodd" fill-rule="evenodd" stroke-linejoin="round" stroke-miterlimit="2" xmlns="http://www.w3.org/2000/svg">
  <path d="M 10.978 10.979 L 1.101 10.979 C 0.538 10.979 0.08 11.437 0.08 12.001 C 0.08 12.565 0.538 13.023 1.101 13.023 L 10.978 13.023 L 10.978 22.9 C 10.978 23.463 11.436 23.921 12 23.921 C 12.564 23.921 13.022 23.463 13.022 22.9 L 13.022 13.023 L 22.898 13.023 C 23.463 13.023 23.921 12.565 23.921 12.001 C 23.921 11.437 23.463 10.979 22.898 10.979 L 13.022 10.979 L 13.022 1.103 C 13.022 0.538 12.564 0.08 12 0.08 C 11.436 0.08 10.978 0.538 10.978 1.103 L 10.978 10.979 Z" fill-rule="nonzero" style="" transform="matrix(1, 0, 0, 1, -2.220446049250313e-16, -2.220446049250313e-16)"/>
</svg>