<?xml version="1.0" encoding="utf-8"?>
<svg viewBox="0 0 24 24" xmlns="http://www.w3.org/2000/svg">
  <path d="M 12.001 2.105 C 17.456 2.105 21.895 6.544 21.895 11.999 C 21.895 17.455 17.456 21.894 12.001 21.894 C 6.545 21.894 2.106 17.455 2.106 11.999 C 2.106 6.544 6.545 2.105 12.001 2.105 Z M 12.001 0.126 C 5.443 0.126 0.127 5.442 0.127 11.999 C 0.127 18.557 5.443 23.873 12.001 23.873 C 18.558 23.873 23.874 18.557 23.874 11.999 C 23.874 5.442 18.558 0.126 12.001 0.126 Z M 17.937 12.989 L 12.99 12.989 L 12.99 17.936 L 11.011 17.936 L 11.011 12.989 L 6.064 12.989 L 6.064 11.01 L 11.011 11.01 L 11.011 6.063 L 12.99 6.063 L 12.99 11.01 L 17.937 11.01 L 17.937 12.989 Z" style=""/>
</svg>