<?xml version="1.0" encoding="utf-8"?>
<svg viewBox="0 0 490 490" width="800px" height="800px" fill="#000000" xmlns="http://www.w3.org/2000/svg">
  <path d="M 245 2.869 C 111.275 2.869 2.869 111.274 2.869 245 C 2.869 378.725 111.275 487.131 245 487.131 C 378.726 487.131 487.131 378.725 487.131 245 C 487.131 111.274 378.726 2.869 245 2.869 Z M 33.902 260.134 L 85.829 260.134 C 86.984 285.259 90.781 308.246 96.679 328.891 L 50.536 328.891 C 41.297 307.558 35.629 284.391 33.902 260.134 Z M 319.695 229.867 C 318.557 205.542 315.673 182.501 311.769 161.11 L 361.373 161.11 C 367.976 181.413 372.508 204.308 373.875 229.867 L 319.695 229.867 Z M 206.832 328.891 C 202.561 305.307 200.465 282.287 200.076 260.134 L 289.925 260.134 C 289.537 282.287 287.44 305.307 283.168 328.891 L 206.832 328.891 Z M 276.574 359.157 C 269.478 386.398 259.207 414.166 244.997 441.994 C 230.79 414.166 220.52 386.398 213.425 359.157 L 276.574 359.157 Z M 200.489 229.867 C 201.687 205.403 204.781 182.35 208.888 161.11 L 281.112 161.11 C 285.221 182.35 288.313 205.403 289.513 229.867 L 200.489 229.867 Z M 215.689 130.844 C 225.147 93.923 236.833 64.792 244.998 46.857 C 253.164 64.792 264.851 93.923 274.311 130.844 L 215.689 130.844 Z M 305.355 130.844 C 295.699 90.831 283.301 58.689 274.098 37.915 C 285.536 46.054 323.535 76.136 349.456 130.844 L 305.355 130.844 Z M 215.898 37.913 C 206.695 58.687 194.299 90.831 184.644 130.844 L 140.539 130.844 C 166.463 76.131 204.464 46.049 215.898 37.913 Z M 178.231 161.111 C 174.327 182.502 171.445 205.543 170.306 229.868 L 116.12 229.868 C 117.487 204.31 122.018 181.414 128.622 161.111 L 178.231 161.111 Z M 85.862 229.867 L 33.902 229.867 C 35.629 205.61 41.296 182.445 50.535 161.11 L 96.888 161.11 C 90.947 181.751 87.075 204.723 85.862 229.867 Z M 116.104 260.134 L 169.891 260.134 C 170.235 282.325 172.102 305.314 176.059 328.891 L 128.638 328.891 C 121.979 308.535 117.432 285.633 116.104 260.134 Z M 182.327 359.157 C 189.751 389.975 200.778 421.473 216.664 453.097 C 205.944 445.422 166.975 414.769 140.553 359.157 L 182.327 359.157 Z M 273.3 453.165 C 289.205 421.518 300.243 389.998 307.674 359.157 L 349.75 359.157 C 323.407 415.053 284.271 445.452 273.3 453.165 Z M 313.942 328.891 C 317.9 305.314 319.767 282.325 320.11 260.134 L 373.907 260.134 C 372.605 285.68 368.131 308.576 361.57 328.891 L 313.942 328.891 Z M 404.165 260.134 L 456.098 260.134 C 454.37 284.391 448.704 307.557 439.464 328.891 L 393.317 328.891 C 399.214 308.246 403.01 285.259 404.165 260.134 Z M 404.134 229.867 C 402.92 204.722 399.048 181.751 393.107 161.11 L 439.466 161.11 C 448.707 182.444 454.372 205.609 456.099 229.867 L 404.134 229.867 Z M 423.198 130.844 L 382.439 130.844 C 368.91 98.257 351.273 72.478 334.676 53.327 C 370.982 70.385 401.662 97.345 423.198 130.844 Z M 155.315 53.331 C 138.719 72.482 121.084 98.259 107.557 130.844 L 66.802 130.844 C 88.336 97.347 119.013 70.39 155.315 53.331 Z M 66.803 359.157 L 107.311 359.157 C 120.635 391.412 138.023 417.105 154.503 436.278 C 118.557 419.198 88.176 392.401 66.803 359.157 Z M 335.504 436.274 C 351.981 417.103 369.366 391.41 382.687 359.157 L 423.197 359.157 C 401.826 392.399 371.447 419.194 335.504 436.274 Z" style="" transform="matrix(1, 0, 0, 1, -7.105427357601002e-15, 0)"/>
</svg>